<svg width="25" height="24" viewBox="0 0 25 24" fill="none" xmlns="http://www.w3.org/2000/svg">
<path d="M12.5769 21C14.3569 21 16.097 20.4722 17.577 19.4832C19.0571 18.4943 20.2106 17.0887 20.8918 15.4442C21.573 13.7996 21.7512 11.99 21.404 10.2442C21.0567 8.49836 20.1995 6.89471 18.9409 5.63604C17.6822 4.37737 16.0785 3.5202 14.3327 3.17294C12.5869 2.82567 10.7773 3.0039 9.13276 3.68509C7.48823 4.36628 6.08262 5.51983 5.09369 6.99987C4.10475 8.47991 3.57691 10.22 3.57691 12C3.57691 13.488 3.93691 14.89 4.57691 16.127L3.57691 21L8.44991 20C9.68591 20.639 11.0899 21 12.5769 21Z" stroke="white" stroke-linecap="round" stroke-linejoin="round"/>
</svg>
