<svg width="24" height="25" viewBox="0 0 24 25" fill="none" xmlns="http://www.w3.org/2000/svg">
<path d="M11.007 21.5H9.605C6.02 21.5 4.228 21.5 3.114 20.365C2 19.23 2 17.403 2 13.75C2 10.097 2 8.27 3.114 7.135C4.228 6 6.02 6 9.605 6H13.408C16.993 6 18.786 6 19.9 7.135C20.757 8.008 20.954 9.291 21 11.5" stroke="white" stroke-width="1.5" stroke-linecap="round" stroke-linejoin="round"/>
<path d="M20.017 20.523L22 22.5M16 6L15.9 5.69C15.405 4.15 15.158 3.38 14.569 2.94C13.979 2.5 13.197 2.5 11.63 2.5H11.367C9.802 2.5 9.019 2.5 8.43 2.94C7.84 3.38 7.593 4.15 7.098 5.69L7 6M21.053 18.026C21.0609 17.5579 20.9755 17.0929 20.8018 16.6581C20.6281 16.2234 20.3696 15.8276 20.0414 15.4937C19.7131 15.1599 19.3217 14.8948 18.8899 14.7138C18.4582 14.5328 17.9947 14.4396 17.5265 14.4396C17.0583 14.4396 16.5948 14.5328 16.1631 14.7138C15.7313 14.8948 15.3399 15.1599 15.0116 15.4937C14.6834 15.8276 14.4249 16.2234 14.2512 16.6581C14.0775 17.0929 13.9921 17.5579 14 18.026C14.0156 18.951 14.394 19.8329 15.0536 20.4815C15.7133 21.1301 16.6014 21.4936 17.5265 21.4936C18.4516 21.4936 19.3397 21.1301 19.9994 20.4815C20.659 19.8329 21.0374 18.951 21.053 18.026Z" stroke="white" stroke-width="1.5" stroke-linecap="round" stroke-linejoin="round"/>
</svg>
