<svg width="25" height="24" viewBox="0 0 25 24" fill="none" xmlns="http://www.w3.org/2000/svg">
<path d="M8.2123 18.3505L11.3123 20.7505C11.7123 21.1505 12.6123 21.3505 13.2123 21.3505H17.0123C18.2123 21.3505 19.5123 20.4505 19.8123 19.2505L22.2123 11.9505C22.7123 10.5505 21.8123 9.35046 20.3123 9.35046H16.3123C15.7123 9.35046 15.2123 8.85046 15.3123 8.15046L15.8123 4.95046C16.0123 4.05046 15.4123 3.05046 14.5123 2.75046C13.7123 2.45046 12.7123 2.85046 12.3123 3.45046L8.2123 9.55046" stroke="white" stroke-miterlimit="10"/>
<path d="M3.11269 18.3504V8.55039C3.11269 7.15039 3.71269 6.65039 5.11269 6.65039H6.11269C7.51269 6.65039 8.11269 7.15039 8.11269 8.55039V18.3504C8.11269 19.7504 7.51269 20.2504 6.11269 20.2504H5.11269C3.71269 20.2504 3.11269 19.7504 3.11269 18.3504Z" stroke="white" stroke-linecap="round" stroke-linejoin="round"/>
</svg>
