<svg width="30" height="31" viewBox="0 0 30 31" fill="none" xmlns="http://www.w3.org/2000/svg">
<g opacity="0.6">
<path d="M10.9492 8.05437C10.91 7.76451 10.8682 7.48021 10.8768 7.18654C10.937 5.14349 12.5126 3.52688 14.5241 3.26592C16.7238 2.98056 18.8567 4.65467 19.1251 6.85391C19.2033 7.49475 19.0677 7.59828 19.0455 8.05437C20.6847 8.69058 22.5677 10.3268 23.5316 11.7415C25.0824 13.9576 25.64 16.6134 25.1828 19.2742C24.7427 22.272 22.6027 25.0397 19.9809 26.4706C16.9096 28.1468 13.1921 28.0773 10.1055 26.5096C9.93432 26.4227 9.65858 26.3019 9.5193 26.175C9.22001 26.0134 8.78354 25.7102 8.52749 25.485C6.67088 24.2156 5.14015 21.3424 4.80162 19.1881C4.75751 18.9073 4.72824 18.6245 4.66806 18.3465C4.69438 17.8089 4.64632 17.2679 4.67961 16.7296C4.78228 15.0692 5.40919 13.4548 6.24754 12.0349C7.07436 10.7543 9.3829 8.41062 10.9492 8.05437Z" fill="#00F2FF"/>
<path d="M13.5634 15.6129H16.0446C15.7083 16.3819 15.3743 16.6276 16.4622 16.5974C16.68 16.3176 16.8121 15.9825 17.0093 15.6889H17.8084C17.9526 15.9999 18.1296 16.3861 18.1765 16.7274C18.0893 16.6566 18.0076 16.5878 17.9031 16.5439C17.6136 16.572 16.1828 16.7934 15.9859 16.8863C15.8956 16.9289 15.8502 17.0187 15.7715 17.0688L15.7707 17.0367C15.9399 16.8109 16.1538 16.8136 16.4048 16.7676L17.2965 16.6111C17.4641 16.583 17.6783 16.5229 17.8421 16.5246C17.9467 16.5256 18.0258 16.6069 18.1267 16.622C18.1191 16.4457 17.9165 15.8518 17.7925 15.7417C17.6252 15.7733 17.4168 15.7648 17.2475 15.7461L17.2502 15.7397C17.3699 15.7368 17.5077 15.7525 17.6229 15.7232L17.617 15.7106C16.7562 15.592 16.9022 16.1279 16.5351 16.5606C16.4364 16.6769 15.7425 16.5944 15.6935 16.5106C15.5829 16.3219 16.1104 15.7234 15.8116 15.64C15.6335 15.5903 13.9561 15.6366 13.5636 15.6308L13.5634 15.6129Z" fill="#3799E7"/>
<path d="M18.4171 24.0519L18.4245 24.0684C18.53 24.3093 18.5774 25.1462 18.7048 25.2038C18.8412 25.2655 19.1556 25.1848 19.3121 25.18C19.2391 25.2478 19.1341 25.2035 19.0486 25.2455C18.9755 25.2815 18.7744 25.5603 18.703 25.6387C18.5291 25.8295 17.6458 26.4633 17.6329 26.5016C17.614 26.5574 17.5564 26.707 17.5168 26.7458C17.5089 26.6429 17.7358 26.2072 17.7898 26.0612C18.0356 25.3965 18.2419 24.7385 18.4171 24.0519Z" fill="#00F2FF"/>
<path d="M17.3062 15.0112C17.4675 15.2346 17.614 15.4942 17.8084 15.6889H17.0093C16.8121 15.9825 16.6801 16.3176 16.4622 16.5974C15.3744 16.6276 15.7083 16.3819 16.0446 15.6129C16.6085 15.6514 16.9875 15.5134 17.3062 15.0112Z" fill="#46C806"/>
<path d="M12.6311 11.6664C12.2283 12.2263 11.5076 12.8008 11.1962 13.2825C11.1073 13.4199 11.1547 13.5903 11.0769 13.7221C10.8966 14.0278 10.1246 13.2539 10.0657 13.0666C9.93258 12.6433 10.1456 12.2431 9.82031 11.8529C9.39346 11.3409 8.60221 11.7826 8.26881 11.5507C7.68223 11.1427 10.4627 10.6784 10.9296 10.6829C11.3191 10.6868 11.7055 10.7531 12.0957 10.7345C12.271 11.0479 12.4474 11.3579 12.6311 11.6664Z" fill="#60FD12"/>
<path d="M13.3213 12.6583C14.0962 13.6163 14.7442 15.1747 15.9003 13.7009L16.4088 13.0552C16.5098 12.9245 16.6033 12.778 16.7168 12.6583C16.9247 13.0096 17.2305 13.4636 17.4632 13.8163C17.4714 14.025 17.4734 14.2393 17.4632 14.4479C17.4621 14.5157 17.4513 14.598 17.4632 14.664C17.4101 14.7788 17.3496 14.8926 17.3062 15.0112C16.9875 15.5134 16.6084 15.6513 16.0446 15.6129H13.5634C13.1787 15.3547 12.8351 15.4733 12.6203 14.7508C12.3838 13.9559 12.968 13.3075 13.3213 12.6583Z" fill="#9A6321"/>
<path d="M15.7715 17.0688C15.8502 17.0187 15.8956 16.9289 15.986 16.8863C16.1828 16.7934 17.6136 16.572 17.9031 16.5439C18.0076 16.5879 18.0893 16.6566 18.1765 16.7274C18.2535 16.9082 18.3241 17.0983 18.4171 17.2711C18.8197 19.4478 18.9844 20.8038 18.6243 23.0668C18.5853 23.312 18.5315 23.8563 18.4171 24.0519C18.2996 23.7905 18.0424 23.471 18.0577 23.1763C18.0736 22.87 18.2334 22.5839 18.2521 22.2765C18.2598 22.1486 17.5104 20.76 17.3814 20.6161C16.9815 20.6241 16.0503 20.6151 15.6571 20.5432C15.4087 20.4978 14.8709 19.965 14.7187 19.7524C14.6955 19.5677 14.6919 18.4464 14.7445 18.2887C14.7908 18.15 15.62 17.2508 15.7715 17.0688Z" fill="#60FD12"/>
<path d="M18.4171 17.2711C18.6775 17.2569 20.0599 17.3326 20.2177 17.4806C20.6764 17.911 21.2487 19.7763 21.896 19.7762C22.0403 19.7762 22.4005 19.6038 22.5042 19.6865C22.611 20.287 21.4855 20.9702 21.2606 21.4967C21.1466 21.7636 21.2727 22.3214 21.2016 22.6519C21.0716 23.2562 20.5914 23.7208 20.355 24.2783C20.2802 24.4546 20.238 24.8197 20.0946 24.9312C19.8123 25.1509 19.5084 25.0838 19.3121 25.18C19.1556 25.1848 18.8412 25.2655 18.7048 25.2038C18.5774 25.1462 18.53 24.3093 18.4245 24.0684L18.4171 24.0519C18.5315 23.8563 18.5853 23.312 18.6243 23.0668C18.9844 20.8038 18.8197 19.4478 18.4171 17.2711Z" fill="#46C806" fill-opacity="0.8"/>
<path d="M6.24755 12.0349C7.01987 12.2578 8.86622 11.94 9.16663 12.503C9.4095 12.9582 8.13333 12.7633 8.49614 13.5959C8.60049 13.8353 8.91327 13.5983 9.0911 13.6551C9.23571 13.7014 9.3434 13.9678 9.4409 14.0847C9.71618 14.4148 10.32 14.6839 10.1153 15.2115C9.99028 15.5336 9.63831 14.7969 9.22545 14.8284C8.58971 14.8769 9.19692 15.3799 9.12174 15.4938C9.01575 15.6545 8.6244 15.7612 8.4492 15.8656C6.99086 16.7353 7.74297 17.1276 7.54047 17.3738C7.31764 17.6447 6.90479 17.0775 6.7576 16.9709C6.51462 17.0063 5.77163 17.0875 5.6372 17.267C5.47647 17.4814 5.47636 18.5454 5.9578 18.4104C6.21596 18.3379 6.42122 17.8337 6.6928 17.9705C7.06065 18.1559 6.40358 18.5503 6.79633 18.819C6.91967 18.9034 7.0978 18.9172 7.20421 19.0237C7.39294 19.2124 7.23807 19.6796 7.66903 19.5874C7.86438 19.5455 8.39383 19.3089 8.50417 19.3038C8.74979 19.2925 9.61879 19.6605 10.0406 19.7415C10.7382 19.8755 10.4175 20.17 10.795 20.4246C11.2097 20.7041 12.0378 20.8769 12.4128 21.2244C12.6485 21.4428 12.2479 22.1881 12.1591 22.4441C12.0622 22.7234 12.0207 23.11 11.8458 23.3531C11.6836 23.5785 11.3498 23.5698 11.1575 23.7587C10.9038 24.0077 10.7651 24.4884 10.5398 24.7914C10.1642 25.2967 9.63145 25.4991 9.5193 26.175C9.22001 26.0134 8.78354 25.7102 8.52749 25.485C6.67088 24.2156 5.14015 21.3424 4.80162 19.1881C4.75751 18.9073 4.72824 18.6245 4.66806 18.3465C4.69438 17.8089 4.64632 17.2679 4.67961 16.7296C4.78228 15.0692 5.40919 13.4548 6.24755 12.0349Z" fill="#60FD12"/>
<path d="M4.66806 18.3465C4.85779 18.3743 5.05023 18.5645 5.22564 18.652C5.64314 18.8605 6.16188 19.0487 6.54813 19.2606C6.77577 19.3855 6.7746 19.6368 6.95876 19.7906C7.15546 19.9548 7.66335 19.8856 7.58267 20.2736C7.51229 20.612 6.99913 20.9669 7.00534 21.2412C7.01384 21.6165 8.32429 22.7295 8.55614 23.2235C8.64263 23.4077 8.53112 25.1263 8.52749 25.485C6.67089 24.2156 5.14015 21.3424 4.80162 19.1881C4.75751 18.9073 4.72825 18.6245 4.66806 18.3465Z" fill="#00F2FF"/>
<path d="M16.8438 12.4709C17.782 10.9133 18.4759 9.89521 19.0455 8.05437C20.6848 8.69059 22.5677 10.3268 23.5316 11.7415C25.0824 13.9576 25.64 16.6134 25.1828 19.2742C24.8088 19.0098 24.5055 18.3004 24.3514 17.8894C23.0978 17.845 23.4909 17.9325 22.5837 17.1991C22.4287 17.222 22.2829 17.251 22.1474 17.3332C22.3238 17.5087 22.5826 17.8353 22.7539 17.9632C23.0055 18.151 23.3044 18.2146 23.5316 18.4479C23.302 18.5769 22.1099 19.3609 21.955 19.3171C21.6127 19.2203 20.6817 17.2921 20.4336 16.8615C20.2256 16.5003 19.9102 16.5529 19.5673 16.3875C19.3999 16.3067 19.2554 16.1321 19.0723 16.091C18.8543 16.0421 18.8595 16.5438 18.7228 16.6374C18.3814 16.5855 18.5902 15.9743 17.8084 15.6889C17.614 15.4942 17.4675 15.2346 17.3063 15.0112C17.3496 14.8926 17.4101 14.7788 17.4632 14.664C17.4513 14.598 17.4621 14.5157 17.4632 14.4479C17.4734 14.2393 17.4714 14.025 17.4632 13.8163C17.2305 13.4636 16.9247 13.0096 16.7169 12.6583C16.7525 12.5919 16.7997 12.5319 16.8438 12.4709Z" fill="#46C806"/>
<path d="M17.4632 14.664C17.5475 14.7569 17.832 15.55 17.8084 15.6889C17.614 15.4942 17.4675 15.2346 17.3062 15.0112C17.3496 14.8926 17.4101 14.7788 17.4632 14.664Z" fill="#46F2B2"/>
<path d="M16.8438 12.4709C17.782 10.9133 18.4759 9.89521 19.0455 8.05437C20.6848 8.69059 22.5677 10.3268 23.5316 11.7415C22.8053 12.1354 23.0813 12.2304 22.2005 12.3574C21.6273 12.4402 21.1554 12.7339 20.6122 12.9031C20.2748 12.764 19.4429 12.3221 19.1866 12.3167C18.517 12.3025 17.0734 13.7301 17.6016 13.8744C17.967 13.9743 18.3437 13.6311 18.6759 13.5141C18.6429 13.826 18.6283 14.1342 18.6336 14.4479C18.2668 14.4471 17.8201 14.4218 17.4632 14.4479C17.4734 14.2393 17.4714 14.025 17.4632 13.8163C17.2305 13.4636 16.9247 13.0096 16.7169 12.6583C16.7525 12.5919 16.7997 12.5319 16.8438 12.4709Z" fill="#00F2FF"/>
<path d="M16.7169 12.6583C16.7525 12.5919 16.7997 12.5319 16.8438 12.4709C17.1274 12.7621 17.526 13.3912 17.4632 13.8163C17.2305 13.4636 16.9247 13.0096 16.7169 12.6583Z" fill="#3799E7"/>
<path d="M10.9492 8.05437C10.91 7.76451 10.8682 7.48021 10.8768 7.18654C10.937 5.14349 12.5126 3.52688 14.5242 3.26592C16.7238 2.98056 18.8567 4.65467 19.1251 6.85391C19.2033 7.49475 19.0677 7.59828 19.0455 8.05437C18.4759 9.89521 17.782 10.9133 16.8438 12.4709C16.7997 12.5319 16.7525 12.5919 16.7169 12.6583C16.6033 12.778 16.5098 12.9245 16.4088 13.0552L15.9003 13.7009C14.7442 15.1747 14.0962 13.6163 13.3213 12.6583C13.1029 12.3229 12.8615 11.9942 12.6311 11.6664C12.4474 11.3579 12.271 11.0479 12.0957 10.7345C11.6678 9.79051 11.2719 9.10361 10.9492 8.05437Z" fill="#FF2E49"/>
<path d="M14.9148 5.37978L14.9299 5.37771C16.4732 5.18045 17.661 7.23881 16.5961 8.5564C16.2149 9.02797 15.7156 9.23937 15.1267 9.30189C12.4473 9.38111 12.3719 5.45563 14.9148 5.37978Z" fill="white"/>
</g>
</svg>
